<svg width="211" height="238" viewBox="0 0 211 238" fill="none" xmlns="http://www.w3.org/2000/svg">
<circle cx="105.5" cy="118.5" r="105.5" fill="#E0A3A5"/>
<path d="M185.438 104.908L185.612 105.16L185.833 105.371C193.927 113.113 200.046 125.077 203.691 138.906C207.327 152.699 208.434 168.1 206.715 182.472C204.992 196.871 200.462 210.01 193.041 219.477C185.693 228.849 175.47 234.703 161.906 234.703C133.216 234.703 101.639 227.369 77.3358 212.972C53.063 198.592 36.4066 177.431 36.4066 149.703C36.4066 134.846 34.2065 121.259 31.7574 108.687C31.1758 105.702 30.5831 102.785 30.0024 99.9284C28.1192 90.6635 26.3622 82.0191 25.5164 73.6306C24.4189 62.7443 24.9015 52.5917 28.6221 42.666C32.3383 32.7519 39.382 22.8079 51.8197 12.5145C62.0368 4.05882 72.4899 1.69411 83.1658 3.63912C94.0105 5.61488 105.347 12.0915 116.975 21.874C140.246 41.4509 163.66 73.3674 185.438 104.908Z" stroke="#E6D2D3" stroke-width="6"/>
</svg>
