<svg width="262" height="297" viewBox="0 0 262 297" fill="none" xmlns="http://www.w3.org/2000/svg">
<circle cx="131" cy="138" r="131" fill="#E0A3A5"/>
<path d="M233.071 169.5C233.071 204.057 205.834 235.148 168.64 257.819C131.581 280.409 85.6143 294 50.0708 294C41.4112 294 34.9482 292.292 30.1417 289.386C25.367 286.5 21.9998 282.295 19.7389 276.878C15.1338 265.844 15.2101 250.023 17.6645 231.27C19.5104 217.166 22.6354 201.802 25.834 186.077C26.868 180.993 27.9097 175.871 28.9184 170.742C33.024 149.866 36.5708 128.909 36.5708 110.5C36.5708 75.9066 60.3678 49.089 93.88 30.7508C127.347 12.4374 169.842 3 205.571 3C222.905 3 232.729 8.75156 238.298 17.8735C244.059 27.3091 245.659 40.9409 244.955 57.4914C244.328 72.2232 241.911 88.7637 239.402 105.943C239.105 107.975 238.807 110.016 238.51 112.063C235.72 131.33 233.071 151.168 233.071 169.5Z" stroke="#E6D2D3" stroke-width="6"/>
</svg>

