<svg width="105" height="134" viewBox="0 0 105 134" fill="none" xmlns="http://www.w3.org/2000/svg">
<circle cx="52.5" cy="72.5" r="52.5" fill="#E0A3A5"/>
<path d="M75.6831 70.8191C74.0707 72.823 73.3372 75.3338 73.1157 78.0016C72.8814 80.8235 73.2057 83.981 73.8026 87.2455C74.6093 91.6572 75.9782 96.5526 77.3193 101.348C77.9433 103.58 78.5613 105.79 79.1138 107.919C80.9122 114.851 82.0009 120.871 81.0938 125.09C80.6604 127.106 79.798 128.57 78.4315 129.567C77.0327 130.587 74.8653 131.292 71.5 131.292C57.7998 131.292 45.7076 123.613 36.9646 112.199C28.2197 100.782 23 85.831 23 71.7921C23 57.3198 24.127 36.3869 29.4406 21.1147C32.1038 13.4599 35.708 7.55952 40.4303 4.4614C44.99 1.46995 50.9805 0.847963 59.1413 4.60832C71.7587 10.4222 79.348 16.0422 83.6497 21.4303C87.8862 26.7368 89.0018 31.8997 88.488 37.095C87.9624 42.4092 85.7283 47.8213 83.056 53.5567C82.5928 54.5509 82.1157 55.556 81.6341 56.5705C79.4496 61.1724 77.1731 65.9679 75.6831 70.8191Z" stroke="#E6D2D3" stroke-width="4"/>
</svg>
