<svg width="504" height="543" viewBox="0 0 504 543" fill="none" xmlns="http://www.w3.org/2000/svg">
<path d="M304.975 133.849C349.385 212.001 279.031 328.543 69.3439 425.738" stroke="#E0A3A5" stroke-width="2"/>
<path d="M482.031 23.7855L461.227 48.5368C461.227 48.5368 431.423 67.4654 401.688 86.8105C378.161 102.117 354.676 117.685 346.034 124.343C326.47 139.415 344.711 165.728 371.992 140.45C399.272 115.171 476.322 51.6315 476.322 51.6315L486.584 55.5065L487.388 51.5845L481.582 48.7595L500.837 43.7161L500.434 40.3641L479.685 45.101L498.43 37.2285L496.804 33.762L478.305 41.9573L495.98 30.1873L492.642 25.961L473.373 40.9461L486.514 24.7047L482.031 23.7855Z" fill="#ECA695"/>
<rect x="309.817" y="458.287" width="23.2674" height="36.0039" transform="rotate(5.05616 309.817 458.287)" fill="#ECA695"/>
<rect x="77.0394" y="364.006" width="23.2674" height="40.4073" transform="rotate(78.1601 77.0394 364.006)" fill="#ECA695"/>
<path d="M282.563 158.225C277.225 146.462 294.698 131.181 295.053 123.367C309.98 133.109 314.956 137.98 323.537 130.978L323.724 131.25C330.704 141.409 363.847 189.639 341.51 245.141C309.659 324.286 171.625 425.215 75.715 465.248C66.1187 420.04 66.1187 378.941 66.1187 361.588V361.588C66.1186 344.235 249.319 250.875 275.404 218.96C308 179.079 288.503 171.316 282.563 158.225Z" fill="#E6D2D3"/>
<path d="M345.106 93.118C345.106 116.949 332.235 136.269 316.357 136.269C300.48 136.269 288.664 118.312 288.664 94.4806C294.334 72.6782 300.48 66.9248 316.357 66.9248C332.235 66.9248 338.512 66.9248 345.106 93.118Z" fill="#ECA695"/>
<circle cx="297.533" cy="107.241" r="6.45058" fill="#E18771"/>
<path d="M295.917 76.8605C300.556 65.3828 311.051 74.6214 316.079 68.1586C314.693 58.5407 309.145 28.5109 278.064 55.0295C256.056 73.8072 256.723 100.32 254.209 120.523C265.598 167.238 241.9 113.636 241.897 198.076C241.897 202.962 283.21 208.512 288.992 198.076C306.075 167.238 310.446 138.174 300.842 128.919C295.456 123.729 282.836 109.225 295.917 76.8605Z" fill="#412207"/>
<ellipse cx="337.849" cy="105.628" rx="7.2569" ry="6.45058" fill="#E18771"/>
<path d="M323.335 90.3081L325.082 89.6461C329.404 88.0082 334.207 88.2008 338.384 90.1794L338.656 90.3081" stroke="#1B2830" stroke-width="5" stroke-linecap="round"/>
<path d="M297.533 91.9208L298.692 91.3073C302.672 89.2002 307.485 89.4355 311.241 91.9208V91.9208" stroke="#1B2830" stroke-width="5" stroke-linecap="round"/>
<path d="M306.994 120.088L305.596 120.545C307.3 124.451 309.789 126.593 317.127 126.593C322.892 126.593 326.299 123.821 326.561 120.545C323.616 119.251 320.287 119.133 317.258 120.217L316.341 120.545C313.388 119.247 310.059 119.084 306.994 120.088Z" fill="#E44444"/>
<path d="M317.59 99.9839L320.11 110.509C319.648 111.694 317.389 113.352 312.047 110.509" stroke="#1B2830" stroke-width="3"/>
<path d="M290.318 320.105C298.586 310.458 334.875 271.869 344.215 241.09L376.553 481.159C377.604 488.959 369.65 494.859 362.491 491.591L292.47 459.634C284.387 455.945 279.519 447.572 280.129 438.708C283.804 385.3 283.423 328.15 290.318 320.105Z" fill="#E6D2D3"/>
<path d="M44.3197 387.767L44.1317 372.456C42.978 369.692 41.5149 367.586 39.8472 366.015C27.208 354.11 13.9693 377.38 14.7973 394.723C15.2197 403.569 15.8068 414.231 16.6088 426.526C16.6876 427.734 16.7881 428.875 16.9092 429.952C20.1007 458.352 44.6704 416.343 44.3197 387.767Z" fill="#E6D2D3"/>
<rect x="34.6721" y="402.355" width="9.67587" height="2.41897" fill="#1B2830"/>
<rect x="34.6721" y="396.71" width="9.67587" height="2.41897" fill="#1B2830"/>
<rect x="34.6721" y="407.999" width="9.67587" height="2.41897" fill="#1B2830"/>
<rect x="34.6721" y="413.643" width="9.67587" height="2.41897" fill="#1B2830"/>
<path d="M322.305 492.186L307.077 490.589C304.198 491.413 301.935 492.621 300.181 494.094C286.885 505.261 308.454 521.12 325.776 522.317C334.61 522.928 345.268 523.587 357.573 524.223C358.782 524.285 359.927 524.318 361.011 524.324C389.589 524.462 350.728 495.166 322.305 492.186Z" fill="#E6D2D3"/>
<rect x="335.476" y="503.332" width="9.76378" height="2.44095" transform="rotate(-83.3109 335.476 503.332)" fill="#1B2830"/>
<rect x="329.718" y="502.657" width="9.76378" height="2.44095" transform="rotate(-83.3109 329.718 502.657)" fill="#1B2830"/>
<rect x="341.233" y="504.007" width="9.76378" height="2.44095" transform="rotate(-83.3109 341.233 504.007)" fill="#1B2830"/>
<rect x="346.991" y="504.682" width="9.76378" height="2.44095" transform="rotate(-83.3109 346.991 504.682)" fill="#1B2830"/>
<path d="M332.623 71.8429C319.856 60.1134 318.896 72.3011 313.016 65.9096C298.881 50.544 323.333 37.4001 343.87 50.5441C384.755 76.7112 365.325 90.5311 367.58 109.877C357.363 154.61 406.201 109.53 384.755 183.054C376.815 210.276 352.584 198.796 347.366 188.835C339.631 156.195 332.955 145.37 325.375 133.079L325.327 133.001C335.663 126.155 356.941 94.1848 332.623 71.8429Z" fill="#412207"/>
<ellipse cx="330.995" cy="91.9208" rx="4.43477" ry="4.03161" fill="#1B2830"/>
<circle cx="304.387" cy="92.3239" r="4.43477" fill="#1B2830"/>
<path d="M320.572 135.462C374.694 213.288 287.674 347.13 73.3755 445.09" stroke="#E0A3A5" stroke-width="2"/>
<path d="M319.44 136.269C363.864 214.582 285.337 341.257 70.1503 439.446" stroke="#E0A3A5" stroke-width="2"/>
<path d="M316.071 136.269C340.199 206.62 292.402 320.463 68.5376 423.319" stroke="#E0A3A5" stroke-width="2"/>
<path d="M318.155 136.269C356.262 220.63 263.28 346.256 70.1503 431.382" stroke="#E0A3A5" stroke-width="2"/>
<path d="M168.824 241.213C168.824 241.213 279.634 139.771 292.473 131.241C305.311 122.712 340.312 139.126 292.473 172.367C244.633 205.608 168.824 256.597 168.824 256.597L170.811 267.411H166.226L164.391 261.166L154.304 278.987L150.636 277.921L160.723 258.577L147.579 275.332L144.064 273.047L157.514 256.597L140.243 271.524L136.269 267.411L157.514 251.571L136.269 261.166V256.597L168.824 241.213Z" fill="#ECA695"/>
<path d="M336.237 259.636L362.845 490.244" stroke="#E0A3A5" stroke-width="2"/>
<path d="M329.786 270.118L356.395 487.825" stroke="#E0A3A5" stroke-width="2"/>
<path d="M324.948 276.568L346.719 483.793" stroke="#E0A3A5" stroke-width="2"/>
</svg>
